<?xml version="1.0" encoding="UTF-8" standalone="no"?>
<!-- Created with Inkscape (http://www.inkscape.org/) -->

<svg
   width="200mm"
   height="300mm"
   viewBox="0 0 200 300"
   version="1.1"
   id="svg1"
   inkscape:export-filename="jscsshtml.svg"
   inkscape:export-xdpi="96"
   inkscape:export-ydpi="96"
   xmlns:inkscape="http://www.inkscape.org/namespaces/inkscape"
   xmlns:sodipodi="http://sodipodi.sourceforge.net/DTD/sodipodi-0.dtd"
   xmlns="http://www.w3.org/2000/svg"
   xmlns:svg="http://www.w3.org/2000/svg">
  <sodipodi:namedview
     id="namedview1"
     pagecolor="#505050"
     bordercolor="#eeeeee"
     borderopacity="1"
     inkscape:showpageshadow="0"
     inkscape:pageopacity="0"
     inkscape:pagecheckerboard="0"
     inkscape:deskcolor="#505050"
     inkscape:document-units="px" />
  <defs
     id="defs1" />
  <g
     inkscape:label="Camada 1"
     inkscape:groupmode="layer"
     id="layer1">
    <path
       style="opacity:1;fill:#d0c84c;fill-opacity:1;stroke:none;stroke-width:0.79375;stroke-linecap:round;stroke-dasharray:none;stroke-opacity:1"
       d="m 36.69013,52.177891 c -9.438566,71.741539 -10.450058,73.274929 57.393006,73.274929 9.687964,0 30.267794,2.98111 38.989834,-4.28725 8.65663,-7.21386 9.78123,-28.532885 11.47967,-37.604537 C 152.70706,40.006799 131.32907,50.221689 91.014118,47.422186 71.085915,46.038357 52.883987,33.193085 37.180215,45.927441"
       id="path24" />
    <path
       style="opacity:0.937758;fill:#d0c84c;fill-opacity:0.465102;stroke:none;stroke-width:0.79375;stroke-linecap:round;stroke-dasharray:none;stroke-opacity:1"
       d="m 47.474384,65.316833 c -9.438566,71.741537 -10.450058,73.274927 57.393006,73.274927 9.68796,0 30.26779,2.98111 38.98983,-4.28725 8.65664,-7.21386 9.78123,-28.53288 11.47967,-37.604535 C 163.49132,53.145741 142.11332,63.360631 101.79837,60.561128 81.870169,59.177299 63.668239,46.332027 47.964469,59.066383"
       id="path24-9" />
    <path
       style="opacity:0.937758;fill:#000000;fill-opacity:0.876769;stroke:none;stroke-width:0.563838;stroke-linecap:round;stroke-dasharray:none;stroke-opacity:1"
       d="m 60.842762,66.717105 c 0.915873,8.802508 7.353701,-0.986008 7.353701,7.312193 0,4.575219 2.064533,11.814468 -0.384195,15.92943 -3.240016,5.444683 -6.897935,-2.854605 -6.897935,6.617288 0,3.628304 9.709157,1.982112 11.087394,0.06778 5.785777,-8.036286 2.10422,-17.374475 1.590436,-26.003059 -0.154033,-2.586859 8.377409,4.101667 5.926788,-5.869116 -0.106739,-0.434288 -1.653436,-0.412984 -1.918529,-0.455752 -3.396931,-0.548053 -16.802868,-2.232979 -16.75766,2.401236 z"
       id="path28" />
    <path
       style="opacity:0.937758;fill:#000000;fill-opacity:0.876769;stroke:none;stroke-width:0.625901;stroke-linecap:round;stroke-dasharray:none;stroke-opacity:1"
       d="m 102.81735,67.542259 c -3.923685,-2.703842 -8.371648,-4.385175 -12.436643,-1.139175 -8.020868,6.404871 6.138725,12.811886 8.595906,16.493809 0.969927,1.45337 1.248247,5.684854 0.587155,7.354337 -2.14853,5.42576 -17.822071,-12.130273 -13.908843,2.578727 2.797033,10.513463 19.026295,2.879248 19.945355,-5.346271 1.12957,-10.10955 -12.8256,-14.556067 -12.245559,-16.259735 1.889916,-5.550964 14.628309,5.851007 9.462629,-3.681692 z"
       id="path29" />
    <path
       style="opacity:0.937758;fill:#a078e6;fill-opacity:0.470203;stroke:none;stroke-width:0.79375;stroke-linecap:round;stroke-dasharray:none;stroke-opacity:1"
       d="m 103.34447,106.432 c 2.40699,20.51743 -3.13647,42.90157 2.64025,63.1201 4.53376,15.86815 19.2095,14.44407 34.02377,15.14426 10.79596,0.51026 29.52003,7.57134 40.25289,1.92507 12.89516,-6.78379 5.63953,-28.32019 7.01291,-39.90455 3.11888,-26.30739 4.88493,-39.04355 -24.35811,-42.68717 -18.74477,-2.33556 -37.36169,-2.30245 -56.23126,-2.30245"
       id="path26-8" />
    <path
       style="opacity:1;fill:#a078e6;fill-opacity:1;stroke:none;stroke-width:0.79375;stroke-linecap:round;stroke-dasharray:none;stroke-opacity:1"
       d="m 92.765,91.628247 c 2.406989,20.517423 -3.136474,42.901573 2.640251,63.120103 4.533757,15.86815 19.209499,14.44407 34.023769,15.14426 10.79596,0.51026 29.52003,7.57134 40.25289,1.92507 12.89516,-6.78379 5.63953,-28.32019 7.01291,-39.90455 3.11888,-26.3074 4.88493,-39.043553 -24.35811,-42.687172 -18.74477,-2.335559 -37.36169,-2.30245 -56.231258,-2.30245"
       id="path26" />
    <path
       style="opacity:1;fill:#ea987a;fill-opacity:0.999908;stroke:none;stroke-width:0.79375;stroke-linecap:round;stroke-dasharray:none;stroke-opacity:1"
       d="m 44.688823,150.5133 c -30.694009,56.89286 -9.82241,74.72012 46.415306,74.72012 10.753191,0 28.950431,1.74957 37.855491,-5.40983 7.0061,-5.63269 8.79334,-20.60609 10.81,-28.67274 11.05783,-44.23132 -42.497027,-45.2865 -76.563113,-45.2865"
       id="path27" />
    <path
       style="opacity:1;fill:#ea987a;fill-opacity:0.46989;stroke:none;stroke-width:0.79375;stroke-linecap:round;stroke-dasharray:none;stroke-opacity:1"
       d="m 57.905583,163.1711 c -30.694009,56.89286 -9.82241,74.72012 46.415307,74.72012 10.75319,0 28.95043,1.74957 37.85549,-5.40983 7.0061,-5.63269 8.79334,-20.60609 10.81,-28.67274 11.05783,-44.23132 -42.49703,-45.2865 -76.563112,-45.2865"
       id="path27-7" />
    <path
       style="opacity:0.937758;fill:#000000;fill-opacity:0.876769;stroke:none;stroke-width:0.701033;stroke-linecap:round;stroke-dasharray:none;stroke-opacity:1"
       d="m 119.38283,116.03109 c -10.7699,-17.492557 -28.463222,14.54868 -14.93094,22.69406 2.68055,1.61349 12.58568,3.05395 13.35989,-1.62091 1.43833,-8.68489 -14.40446,-3.04026 -10.47261,-14.35643 2.39221,-6.88495 12.46327,2.179 12.04366,-6.71672 z"
       id="path30"
       sodipodi:nodetypes="csssc" />
    <path
       style="opacity:0.937758;fill:#000000;fill-opacity:0.876769;stroke:none;stroke-width:0.79375;stroke-linecap:round;stroke-dasharray:none;stroke-opacity:1"
       d="m 143.07397,115.7347 c 3.82741,-5.04637 -8.60235,-4.56005 -12.06329,-1.96843 -13.51466,10.12006 7.72087,8.60903 7.72087,16.97398 0,9.71348 -14.48874,-1.11966 -12.99123,4.94256 1.68369,6.81592 14.60158,5.3698 17.06657,1.67232 8.76832,-13.15247 -22.83036,-20.15275 0.26708,-21.62043 z"
       id="path31"
       sodipodi:nodetypes="cssssc" />
    <path
       style="opacity:0.937758;fill:#000000;fill-opacity:0.876769;stroke:none;stroke-width:0.79375;stroke-linecap:round;stroke-dasharray:none;stroke-opacity:1"
       d="m 164.89403,115.86041 c -4.02348,-3.67324 -21.16734,0.49837 -16.12416,6.60094 3.62012,4.38059 13.44951,3.23064 8.99273,12.14421 -1.05112,2.10223 -13.09608,1.13666 -9.77727,4.45546 3.84927,3.84927 13.86543,3.94912 16.1056,-1.65129 3.13761,-7.84404 -9.26332,-15.43918 -8.58935,-17.37462 1.24735,-3.58199 13.90066,1.74271 9.39245,-4.1747 z"
       id="path32"
       sodipodi:nodetypes="csssssc" />
    <path
       style="opacity:0.937758;fill:#000000;fill-opacity:0.876769;stroke:none;stroke-width:0.79375;stroke-linecap:round;stroke-dasharray:none;stroke-opacity:1"
       d="m 47.86427,164.46649 c 0.367705,-0.58049 -11.141255,40.00214 -2.405869,35.63392 3.059723,-1.53004 0.784611,-8.53846 4.814133,-9.95256 7.290324,-2.55841 0.455721,12.53305 5.439497,10.95457 4.060219,-1.28598 4.464325,-13.76384 3.184681,-16.96297 -1.170389,-2.926 -8.884073,2.12398 -9.402775,-0.98443 -0.668539,-4.00632 7.448764,-21.55548 -1.629667,-18.68853 z"
       id="path33" />
    <path
       style="opacity:0.937758;fill:#000000;fill-opacity:0.876769;stroke:none;stroke-width:0.79375;stroke-linecap:round;stroke-dasharray:none;stroke-opacity:1"
       d="m 67.501496,181.1145 c -2.176753,1.28239 -9.431014,-2.3091 -6.093176,-5.70654 1.880227,-1.9138 5.853308,0.6258 7.048161,-0.95465 0.898033,-1.18784 1.526135,-8.70323 4.883269,-6.9686 2.427031,1.25405 0.477229,7.28165 0.997503,7.54168 1.873189,0.93623 5.546341,-1.68874 6.379488,1.55262 0.753229,2.93044 -4.081905,4.37757 -6.98716,5.21552 -1.242182,0.35827 -0.432058,2.94848 -0.86774,4.69121 -0.728682,2.91473 1.114012,12.70652 -2.657898,14.00133 -6.291345,2.15967 -3.313876,-15.31376 -2.702447,-19.37257 z"
       id="path34"
       sodipodi:nodetypes="cssssssssc" />
    <path
       style="opacity:0.937758;fill:#000000;fill-opacity:0.876769;stroke:none;stroke-width:0.79375;stroke-linecap:round;stroke-dasharray:none;stroke-opacity:1"
       d="m 84.007456,181.25042 c 4.721699,-3.17596 1.443548,4.85143 1.888644,4.52965 3.19369,-2.30885 9.960255,-8.15346 9.960255,0.02 0,0.11272 5.329985,-7.74037 8.201125,-2.57232 2.70211,4.86381 5.12738,14.06252 2.04455,18.43472 -2.66676,3.7821 -3.44766,-5.28784 -3.73982,-9.90261 -2.405059,-8.76931 -5.194303,0.60852 -7.250784,0.29921 -2.070897,-0.31148 -3.927557,-4.08654 -5.427083,-3.67323 -3.537366,0.97499 -2.92977,18.34846 -8.629022,14.13357 -3.138387,-2.32099 -0.254288,-19.11225 2.952135,-21.26899 z"
       id="path35"
       sodipodi:nodetypes="ssssscssss" />
    <path
       style="opacity:0.937758;fill:#000000;fill-opacity:0.876769;stroke:none;stroke-width:0.79375;stroke-linecap:round;stroke-dasharray:none;stroke-opacity:1"
       d="m 118.89823,170.50622 c -0.63553,7.18423 -1.54965,16.01223 -3.44634,23.06998 -1.03512,3.62052 0.55717,15.65418 4.99963,7.41559 1.66078,-3.07994 9.11101,-38.37227 -1.55329,-30.48557 z"
       id="path36"
       sodipodi:nodetypes="cssc" />
  </g>
</svg>
